<?xml version='1.0' encoding='utf-8'?>
<svg xmlns="http://www.w3.org/2000/svg" version="1.1" width="600px" height="976px" viewBox="0 0 600 976"> <g id="layer1"> <g style="fill:rgb(0,0,0); fill-opacity:1.0; stroke-linejoin: miter"> <path d="M191.17982,429.28668C190.46738,429.65717,189.05672,430.72583,188.45825,431.33856C188.15903,431.66626,187.8313,431.9228,187.73155,431.9228C187.36108,431.9228,187.09033,430.42664,187.40382,430.11316C187.50357,430.01343,187.50357,429.92792,187.41806,429.8709C187.34683,429.82813,187.03334,430.05615,186.74837,430.36963L186.22115,430.96808L186.27814,432.05103C186.3494,433.10547,186.46338,433.5614,187.21858,435.98376C187.68881,437.49414,188.68625,439.73126,189.24194,440.52924C189.88316,441.46967,191.16557,442.8233,192.09177,443.53577C193.33144,444.49048,194.59961,445.13165,196.59448,445.8014C199.05957,446.6421,202.10886,447.9245,202.18011,448.16675C202.22285,448.29498,202.13736,448.3235,201.83813,448.2522C201.61014,448.20947,201.12567,448.12396,200.76945,448.08124C200.17099,447.99573,200.0855,448.02423,199.92876,448.3092C199.78627,448.57996,199.82901,448.77942,200.28497,449.67712C200.8407,450.8028,201.41066,451.37274,202.2656,451.60077C202.77856,451.74323,202.77856,451.74323,202.77856,452.55542C202.76431,452.9972,202.65033,453.72388,202.49359,454.15137C202.33685,454.5788,202.22285,455.0633,202.20862,455.20575C202.20862,455.73297,201.6529,456.6449,201.18268,456.91565C200.9262,457.0724,199.9715,457.9416,199.07382,458.85352C198.09064,459.85095,197.26419,460.56342,197.0362,460.62042C196.82245,460.66315,196.18124,460.9339,195.6113,461.19037C194.97008,461.48962,194.27188,461.6891,193.73041,461.7461C193.18893,461.78882,192.50499,461.98834,191.89227,462.28754C191.29382,462.5725,190.25363,462.87177,189.2562,463.0713C188.34427,463.25647,187.16159,463.49872,186.60587,463.61273C184.89598,463.99744,181.81818,463.91193,178.71188,463.4132C174.69365,462.77203,173.58221,462.68652,171.07439,462.77203C167.07039,462.92877,166.24394,463.114,163.02365,464.66714C162.04047,465.1374,160.98604,465.5506,160.67256,465.5791C160.35907,465.62183,159.4614,465.9638,158.67769,466.34854C156.75406,467.27472,155.5429,468.41467,155.38615,469.45483C155.32916,469.83957,155.3434,470.45227,155.41464,470.8085C155.52864,471.3642,155.62839,471.5067,156.0986,471.76318C156.39783,471.93417,156.89655,472.11942,157.21004,472.16217C157.666,472.2334,157.85124,472.19067,158.26447,471.8772C158.90567,471.37848,159.1764,470.85126,159.1764,470.06757C159.1764,469.3836,159.53262,468.9134,159.9886,468.99887C160.21658,469.04163,160.24509,469.22687,160.25934,471.0365C160.25934,473.1311,160.33058,473.43033,161.51324,476.63635C161.69849,477.1066,161.71274,477.37732,161.59875,477.84753C161.5275,478.1753,161.29951,479.21545,161.10004,480.14166C160.88629,481.0821,160.6298,482.05103,160.50157,482.279C160.15959,482.9772,157.65175,485.37103,156.46909,486.15475C155.61414,486.71045,155.32916,486.99545,155.05843,487.55115L154.71645,488.2351L154.7307,493.17957C154.74495,495.88687,154.7022,499.13568,154.63095,500.3896C154.54546,502.15646,154.55971,502.88318,154.71645,503.6241L154.91592,504.59308L154.40297,505.334C154.13223,505.74725,153.90425,506.18896,153.90425,506.30295C153.90425,506.51666,155.15817,507.41437,156.14136,507.92734C156.54033,508.12683,156.61157,508.12683,156.81107,507.9416C157.08179,507.67084,157.52351,505.70447,157.42377,505.19153C157.38103,504.97778,157.23853,504.32233,157.11029,503.7381C156.52608,501.0023,156.81107,494.26248,157.63751,491.4554C157.87973,490.5862,159.09091,489.43204,160.67256,488.56287C161.37076,488.16388,162.53918,487.45142,163.26588,486.96695C163.99258,486.48248,164.61955,486.1405,164.6623,486.21173C164.81903,486.46823,164.02109,488.53436,163.33713,489.63153C162.56769,490.82843,162.43944,491.4269,162.66742,492.50983C162.76717,493.00854,163.1519,494.07724,163.50812,494.88943C164.46281,497.01254,167.02765,503.58136,167.86835,506.0892C168.08208,506.7162,168.3813,507.49988,168.55229,507.82758L168.85153,508.4118L168.43831,508.93903C167.86835,509.6515,167.79709,509.9507,168.08208,510.37817C168.21033,510.57767,168.28156,510.83417,168.23882,510.9339C168.19608,511.04788,168.2958,511.17615,168.4668,511.23312C169.02252,511.4041,170.54716,511.3186,171.06013,511.0764C171.48761,510.8769,171.5731,510.7344,171.70134,510.13593C171.78683,509.73697,171.85808,509.23825,171.85808,509.01025C171.85808,508.65405,171.20262,507.11514,170.63266,506.16046C169.29324,503.90912,167.22713,497.68225,166.88516,494.81818C166.67142,493.0513,166.95639,492.19635,168.62354,489.64578C169.15076,488.83356,170.29068,486.76746,171.15988,485.05756C172.02907,483.3477,172.85551,481.79456,172.99802,481.62354C173.24023,481.31006,173.35423,481.29584,175.09262,481.31006L176.9165,481.3243L179.35309,482.1935C183.27159,483.5899,186.24965,484.21686,190.48163,484.54462L192.59048,484.71558L192.93246,485.57056C193.33144,486.5822,193.7019,488.6056,194.01538,491.55515C194.25763,493.9205,194.34311,494.34796,195.22656,497.75348L195.83926,500.1046L195.39755,500.9168C195.14107,501.35852,194.94159,501.92847,194.94159,502.18497L194.94159,502.64093L194.31462,502.55542C193.55942,502.44147,193.41693,502.61243,193.01796,503.95184C192.88971,504.42206,192.67598,504.99203,192.56198,505.22003C192.23425,505.847,192.448,505.93246,193.97264,505.73297C195.26932,505.54773,195.31206,505.5335,195.88202,504.93503C196.49472,504.27957,196.65147,504.26532,196.65147,504.84955C196.65147,505.0348,196.76547,505.3625,196.92221,505.562C197.07895,505.80423,197.24994,506.4597,197.36392,507.32886C197.59192,509.1385,197.66315,509.1955,199.28755,509.1385C200.68396,509.06726,200.8977,508.92477,200.54147,508.25507C200.25648,507.69934,199.55829,506.00372,199.23056,505.09177C199.08806,504.6928,198.80307,504.02307,198.61784,503.59564C198.14761,502.55542,197.74866,500.93103,197.83414,500.3896C197.93388,499.80536,199.25905,496.72757,199.81476,495.84412C200.057,495.44513,200.62695,494.66144,201.06868,494.12C202.43658,492.4671,202.46509,491.81165,201.26817,489.26105C200.38474,487.3659,200.114,486.66772,199.78627,485.41382C199.40155,483.97464,199.4158,483.8179,199.9715,483.57568C200.45596,483.3762,201.62439,483.2622,201.85239,483.39044C201.93787,483.43317,202.16586,483.50443,202.39384,483.5614C202.73582,483.6469,202.82132,483.57568,203.32004,482.84897C203.60501,482.40723,204.07524,481.70905,204.34598,481.31006C204.83044,480.56912,205.75662,479.65717,205.99887,479.65717C206.1841,479.65717,206.65433,479.04446,207.5805,477.59106C208.03648,476.8786,208.6492,475.99518,208.94843,475.61044C209.2334,475.2257,209.47565,474.841,209.47565,474.76974C209.47565,474.68427,209.58963,474.48474,209.73212,474.328C210.05984,473.95755,210.41608,472.83185,210.61557,471.56372C211.01453,469.09863,211.10004,468.67114,211.19977,468.5999C211.27103,468.55713,211.38501,468.2864,211.4705,467.97293C211.5845,467.57397,211.68423,467.43146,211.82674,467.48846C211.95499,467.54547,212.04047,467.48846,212.04047,467.36023C212.04047,467.232,212.1687,467.08948,212.32545,467.04675C212.4822,467.004,212.61044,466.833,212.61044,466.69052C212.61044,466.54803,212.66742,466.3913,212.73868,466.34854C212.98091,466.1918,213.0094,465.4651,212.80992,464.33942C212.55344,462.84326,212.55344,462.7008,212.88116,462.7008C213.13765,462.7008,213.16614,462.5868,213.16614,461.50385C213.1519,460.07898,213.18039,459.96497,213.86435,458.52582C214.36307,457.45715,214.42007,457.40015,215.24652,457.00116C216.2582,456.51666,217.12738,456.30298,218.03934,456.2887C218.79453,456.2887,219.44998,455.8755,219.44998,455.40527C219.44998,455.23425,219.56398,454.97778,219.69223,454.83527C219.82047,454.67853,219.9487,454.26532,219.9772,453.8236C220.04845,452.74066,219.59248,452.28467,218.23882,452.0852C217.32687,451.94275,214.84753,450.84558,214.10658,450.23285C213.7931,449.9906,213.32288,449.66284,213.08066,449.53467C212.4252,449.2069,211.613,448.46594,211.613,448.1952C211.613,448.08124,211.91223,447.62524,212.26846,447.18353C212.99515,446.31433,213.39413,445.54492,213.55087,444.67572C213.62212,444.26245,213.83585,443.93475,214.36307,443.42175C215.08978,442.72357,215.17526,442.45288,214.57681,442.75208C213.83585,443.15106,213.32288,443.64978,212.88116,444.4192C212.32545,445.41663,211.48476,446.34283,210.62982,446.89856C209.4614,447.65375,209.47565,447.66797,209.47565,444.74695C209.47565,443.2508,209.41864,442.18213,209.3474,442.18213C209.2049,442.18213,209.13367,442.36737,208.97693,443.13678C208.91992,443.40753,208.79169,443.60706,208.67769,443.60706C208.32147,443.60706,208.4212,442.19635,208.83443,441.42688C209.21915,440.68597,209.11942,440.47223,208.57794,440.89966C208.37845,441.0564,208.17897,441.1419,208.13623,441.07068C208.09348,440.99945,207.96524,440.50073,207.83699,439.945C207.70876,439.38928,207.52351,438.81934,207.40952,438.67682C207.22427,438.42035,207.21004,438.42035,207.12454,438.64832C207.06754,438.79083,207.09604,439.432,207.18153,440.07324C207.42377,441.82587,207.1673,441.82587,206.2981,440.11597C206.08435,439.68854,205.81363,438.7196,205.64264,437.7364C205.32916,435.98376,204.97293,435.0006,204.40297,434.24536C203.87575,433.5614,203.776,433.6754,204.08948,434.58734C204.43146,435.59906,204.60245,437.67938,204.36023,437.83612C204.07524,438.00714,203.0778,437.23767,201.6814,435.7843C200.96893,435.04333,200.32773,434.4734,200.27074,434.5161C200.07126,434.72986,200.39899,435.3283,201.63864,437.05243C203.33429,439.40356,203.34854,439.8025,201.72415,438.54858C201.18268,438.13538,201.06868,438.09265,201.06868,438.3064C201.06868,438.5913,202.59334,440.10175,203.59076,440.82843C204.43146,441.44116,205.02992,442.4101,205.4289,443.778C205.77087,444.9749,205.87062,446.17188,205.64264,446.17188C205.2864,446.17188,202.70734,445.4309,201.85239,445.0747C200.35623,444.46198,199.30179,443.7068,197.6489,442.0396C195.4403,439.84528,194.7421,438.2209,195.31206,436.63922C195.6113,435.77002,195.49728,435.57056,195.01282,436.1405C193.77316,437.57965,194.01538,440.04474,195.59705,441.9969C195.86777,442.3246,196.08151,442.65234,196.08151,442.7378C196.08151,443.2223,194.62811,442.58105,193.91565,441.78314C192.76147,440.50073,192.31975,439.0901,192.31975,436.625C192.30551,435.64178,192.34825,434.55884,192.40524,434.20264C192.4765,433.81787,192.46225,433.47595,192.37674,433.34766C192.2485,433.16248,192.17726,433.2052,191.87802,433.5614C191.67854,433.78943,191.47906,434.13135,191.43631,434.30237C191.33656,434.67285,190.25363,434.97205,189.24194,434.8866L188.60074,434.84387L188.558,434.0174C188.5295,433.39044,188.58649,433.03418,188.81448,432.59247C189.12796,431.937,190.56711,430.36963,191.4078,429.7284C191.70703,429.50043,191.90652,429.27246,191.86378,429.20117C191.76404,429.0302,191.66429,429.04443,191.17982,429.28668 Z M190.90909,435.88403C190.86635,436.112,190.78085,436.79596,190.72385,437.3944C190.58136,439.0188,190.26788,439.0188,189.48419,437.4087C188.91422,436.25452,188.92847,436.1975,189.78342,435.91254C190.19664,435.77002,190.58136,435.62756,190.62411,435.57056C190.83784,435.3568,190.98035,435.51355,190.90909,435.88403 Z M198.38986,490.7002C198.94557,491.28442,199.10231,491.78314,198.98831,492.48132C198.87433,493.09406,198.01938,494.9464,197.7344,495.17444C197.53491,495.3454,197.50641,495.21716,197.29268,493.26505C197.26419,492.96582,197.46367,491.05646,197.57767,490.51495C197.6774,490.0875,197.83414,490.116,198.38986,490.7002 Z"/> </g> </g> </svg>