<?xml version="1.0" encoding="UTF-8"?>
<svg viewBox="0 0 153 153" xmlns="http://www.w3.org/2000/svg">
 <g transform="matrix(.99371 0 0 .99352 -468.96 -193.39)">
  <path d="m562.53 310c0 7.0761-5.7364 12.812-12.813 12.812s-12.812-5.7363-12.812-12.812 5.7364-12.812 12.812-12.812 12.813 5.7363 12.813 12.812z"/>
  <path d="m548.94 196.66c-41.424-2e-3 -75 33.58-75 75 0 40.767 32.532 73.898 72.875 74.938-19.98-0.99982-35.75-17.374-35.75-37.438 0-20.711 16.789-37.5 37.688-37.5s37.688-16.789 37.688-37.5-16.785-37.498-37.5-37.5zm0 24.688c7.0737 0 12.812 5.7388 12.812 12.812s-5.7388 12.812-12.812 12.812-12.812-5.7388-12.812-12.812 5.7388-12.812 12.812-12.812z" stroke="#000"/>
  <path d="m548.94 196.18c-41.676 0-75.48 33.804-75.48 75.48s33.804 75.48 75.48 75.48 75.451-33.804 75.451-75.48-33.774-75.48-75.451-75.48zm0 0.95019c41.163 0 74.5 33.367 74.5 74.53s-33.338 74.53-74.5 74.53-74.53-33.367-74.53-74.53 33.367-74.53 74.53-74.53z"/>
 </g>
</svg>
