<?xml version="1.0" encoding="utf-8"?>
<svg viewBox="149.3916 206.9188 166.0078 67.1961" xmlns="http://www.w3.org/2000/svg" xmlns:bx="https://boxy-svg.com">
  <g transform="matrix(1, 0, 0, 1, 7.105427357601002e-15, 0)">
    <path d="M 174.62 214.239 Q 181.635 200.21 188.649 214.239 L 211.539 260.02 Q 218.554 274.049 204.525 274.049 L 158.744 274.049 Q 144.715 274.049 151.73 260.02 Z" style="stroke-opacity: 0.8; fill: rgb(255, 255, 255);" bx:shape="triangle 144.715 200.21 73.839 73.839 0.5 0.19 1@1fc9d998"/>
    <g transform="matrix(1.055888, 0, 0, 1.055888, 60.406471, 78.40715)" style="">
      <ellipse style="fill: rgb(255, 255, 255);" cx="171.54" cy="141.85" rx="19.951" ry="19.951"/>
      <ellipse style="fill: rgb(255, 255, 255);" cx="173.434" cy="165.398" rx="19.951" ry="19.951"/>
      <path style="fill-rule: evenodd; fill: rgb(255, 255, 255);" d="M 156.742 122.016 H 171.428 V 185.28 H 157.402 A 6.206 6.206 0 0 1 151.196 179.074 V 127.562 A 5.546 5.546 0 0 1 156.742 122.016 Z" bx:shape="rect 151.196 122.016 20.232 63.264 5.546 0 0 6.206 1@a69ac8d9"/>
    </g>
    <g transform="matrix(1.055888, 0, 0, 1.055888, 111.206474, 78.207146)" style="">
      <ellipse style="fill: rgb(255, 255, 255);" cx="171.54" cy="141.85" rx="19.951" ry="19.951"/>
      <ellipse style="fill: rgb(255, 255, 255);" cx="173.434" cy="165.398" rx="19.951" ry="19.951"/>
      <path style="fill-rule: evenodd; fill: rgb(255, 255, 255);" d="M 156.742 122.016 H 171.428 V 185.28 H 157.402 A 6.206 6.206 0 0 1 151.196 179.074 V 127.562 A 5.546 5.546 0 0 1 156.742 122.016 Z" bx:shape="rect 151.196 122.016 20.232 63.264 5.546 0 0 6.206 1@a69ac8d9"/>
    </g>
  </g>
</svg>